<?xml version="1.0" encoding="UTF-8" standalone="no"?><svg xmlns="http://www.w3.org/2000/svg" xmlns:xlink="http://www.w3.org/1999/xlink" contentScriptType="application/ecmascript" contentStyleType="text/css" height="376px" preserveAspectRatio="none" style="width:272px;height:376px;" version="1.1" viewBox="0 0 272 376" width="272px" zoomAndPan="magnify"><defs><filter height="300%" id="f1lp72fiphzomn" width="300%" x="-1" y="-1"><feGaussianBlur result="blurOut" stdDeviation="2.0"/><feColorMatrix in="blurOut" result="blurOut2" type="matrix" values="0 0 0 0 0 0 0 0 0 0 0 0 0 0 0 0 0 0 .4 0"/><feOffset dx="4.0" dy="4.0" in="blurOut2" result="blurOut3"/><feBlend in="SourceGraphic" in2="blurOut3" mode="normal"/></filter></defs><g><ellipse cx="133" cy="20" fill="#000000" filter="url(#f1lp72fiphzomn)" rx="10" ry="10" style="stroke:none;stroke-width:1.0;"/><rect fill="#FEFECE" filter="url(#f1lp72fiphzomn)" height="35.0938" rx="12.5" ry="12.5" style="stroke:#A80036;stroke-width:1.5;" width="244" x="11" y="50"/><text fill="#000000" font-family="sans-serif" font-size="12" lengthAdjust="spacing" textLength="224" x="21" y="72.457">Maven command Java system properties</text><rect fill="#FEFECE" filter="url(#f1lp72fiphzomn)" height="35.0938" rx="12.5" ry="12.5" style="stroke:#A80036;stroke-width:1.5;" width="146" x="60" y="127.3467"/><text fill="#000000" font-family="sans-serif" font-size="12" lengthAdjust="spacing" textLength="126" x="70" y="149.8037">Pom xml file properties</text><rect fill="#FEFECE" filter="url(#f1lp72fiphzomn)" height="35.0938" rx="12.5" ry="12.5" style="stroke:#A80036;stroke-width:1.5;" width="230" x="18" y="204.6934"/><text fill="#000000" font-family="sans-serif" font-size="12" lengthAdjust="spacing" textLength="60" x="28" y="227.1504">Application</text><text fill="#000000" font-family="sans-serif" font-size="12" font-weight="bold" lengthAdjust="spacing" textLength="62" x="91" y="227.1504">.properties</text><text fill="#000000" font-family="sans-serif" font-size="12" lengthAdjust="spacing" textLength="82" x="156" y="227.1504">files properties</text><rect fill="#FEFECE" filter="url(#f1lp72fiphzomn)" height="35.0938" rx="12.5" ry="12.5" style="stroke:#A80036;stroke-width:1.5;" width="110" x="78" y="282.04"/><text fill="#000000" font-family="sans-serif" font-size="12" lengthAdjust="spacing" textLength="90" x="88" y="304.4971">Application code</text><ellipse cx="133" cy="348.1338" fill="#FFFFFF" filter="url(#f1lp72fiphzomn)" rx="11" ry="11" style="stroke:#000000;stroke-width:1.0;"/><ellipse cx="133" cy="348.1338" fill="#000000" rx="6" ry="6" style="stroke:#7F7F7F;stroke-width:1.0;"/><line style="stroke:#A80036;stroke-width:1.5;" x1="133" x2="133" y1="30" y2="50"/><polygon fill="#A80036" points="129,40,133,50,137,40,133,44" style="stroke:#A80036;stroke-width:1.0;"/><line style="stroke:#A80036;stroke-width:1.5;" x1="133" x2="133" y1="85.0938" y2="127.3467"/><polygon fill="#A80036" points="129,117.3467,133,127.3467,137,117.3467,133,121.3467" style="stroke:#A80036;stroke-width:1.0;"/><text fill="#000000" font-family="sans-serif" font-size="11" lengthAdjust="spacing" textLength="42" x="137" y="107.4297">resolves</text><line style="stroke:#A80036;stroke-width:1.5;" x1="133" x2="133" y1="162.4404" y2="204.6934"/><polygon fill="#A80036" points="129,194.6934,133,204.6934,137,194.6934,133,198.6934" style="stroke:#A80036;stroke-width:1.0;"/><text fill="#000000" font-family="sans-serif" font-size="11" lengthAdjust="spacing" textLength="42" x="137" y="184.7764">resolves</text><line style="stroke:#A80036;stroke-width:1.5;" x1="133" x2="133" y1="239.7871" y2="282.04"/><polygon fill="#A80036" points="129,272.04,133,282.04,137,272.04,133,276.04" style="stroke:#A80036;stroke-width:1.0;"/><text fill="#000000" font-family="sans-serif" font-size="11" lengthAdjust="spacing" textLength="39" x="137" y="262.123">used by</text><line style="stroke:#A80036;stroke-width:1.5;" x1="133" x2="133" y1="317.1338" y2="337.1338"/><polygon fill="#A80036" points="129,327.1338,133,337.1338,137,327.1338,133,331.1338" style="stroke:#A80036;stroke-width:1.0;"/><!--MD5=[943bcc3bebbcec447cf0d9169ce052e1]
@startuml
start
:Maven command Java system properties;
-> resolves;
:Pom xml file properties;
-> resolves;
:Application **.properties** files properties;
-> used by;
:Application code;
stop
@enduml

PlantUML version 1.2021.01(Tue Feb 02 09:55:08 EET 2021)
(GPL source distribution)
Java Runtime: OpenJDK Runtime Environment
JVM: Dynamic Code Evolution 64-Bit Server VM
Default Encoding: Cp1252
Language: en
Country: US
--></g></svg>