<?xml version="1.0" encoding="UTF-8" standalone="no"?><svg xmlns="http://www.w3.org/2000/svg" xmlns:xlink="http://www.w3.org/1999/xlink" contentScriptType="application/ecmascript" contentStyleType="text/css" height="440px" preserveAspectRatio="none" style="width:401px;height:440px;" version="1.1" viewBox="0 0 401 440" width="401px" zoomAndPan="magnify"><defs><filter height="300%" id="fdv6enyuoplti" width="300%" x="-1" y="-1"><feGaussianBlur result="blurOut" stdDeviation="2.0"/><feColorMatrix in="blurOut" result="blurOut2" type="matrix" values="0 0 0 0 0 0 0 0 0 0 0 0 0 0 0 0 0 0 .4 0"/><feOffset dx="4.0" dy="4.0" in="blurOut2" result="blurOut3"/><feBlend in="SourceGraphic" in2="blurOut3" mode="normal"/></filter></defs><g><ellipse cx="198.75" cy="20" fill="#000000" filter="url(#fdv6enyuoplti)" rx="10" ry="10" style="stroke:none;stroke-width:1.0;"/><polygon fill="#FEFECE" filter="url(#fdv6enyuoplti)" points="123.75,50,273.75,50,285.75,62,273.75,74,123.75,74,111.75,62,123.75,50" style="stroke:#A80036;stroke-width:1.5;"/><text fill="#000000" font-family="sans-serif" font-size="11" lengthAdjust="spacing" textLength="150" x="123.75" y="66.501">Is local application file present?</text><text fill="#000000" font-family="sans-serif" font-size="11" lengthAdjust="spacing" textLength="18" x="93.75" y="59.583">yes</text><text fill="#000000" font-family="sans-serif" font-size="11" lengthAdjust="spacing" textLength="12" x="285.75" y="59.583">no</text><rect fill="#FEFECE" filter="url(#fdv6enyuoplti)" height="35.0938" rx="12.5" ry="12.5" style="stroke:#A80036;stroke-width:1.5;" width="179" x="11" y="84"/><text fill="#000000" font-family="sans-serif" font-size="12" lengthAdjust="spacing" textLength="159" x="21" y="106.457">Local application file property</text><rect fill="#FEFECE" filter="url(#fdv6enyuoplti)" height="35.0938" rx="12.5" ry="12.5" style="stroke:#A80036;stroke-width:1.5;" width="174" x="210" y="84"/><text fill="#000000" font-family="sans-serif" font-size="12" lengthAdjust="spacing" textLength="154" x="220" y="106.457">Gradle environment variable</text><polygon fill="#FEFECE" filter="url(#fdv6enyuoplti)" points="198.75,125.0938,210.75,137.0938,198.75,149.0938,186.75,137.0938,198.75,125.0938" style="stroke:#A80036;stroke-width:1.5;"/><rect fill="#FEFECE" filter="url(#fdv6enyuoplti)" height="35.0938" rx="12.5" ry="12.5" style="stroke:#A80036;stroke-width:1.5;" width="192" x="102.75" y="191.3467"/><text fill="#000000" font-family="sans-serif" font-size="12" lengthAdjust="spacing" textLength="172" x="112.75" y="213.8037">Artifact specific resource values</text><rect fill="#FEFECE" filter="url(#fdv6enyuoplti)" height="35.0938" rx="12.5" ry="12.5" style="stroke:#A80036;stroke-width:1.5;" width="177" x="110.25" y="268.6934"/><text fill="#000000" font-family="sans-serif" font-size="12" lengthAdjust="spacing" textLength="157" x="120.25" y="291.1504">AndroidManifest.xml property</text><rect fill="#FEFECE" filter="url(#fdv6enyuoplti)" height="35.0938" rx="12.5" ry="12.5" style="stroke:#A80036;stroke-width:1.5;" width="110" x="143.75" y="346.04"/><text fill="#000000" font-family="sans-serif" font-size="12" lengthAdjust="spacing" textLength="90" x="153.75" y="368.4971">Application code</text><ellipse cx="198.75" cy="412.1338" fill="#FFFFFF" filter="url(#fdv6enyuoplti)" rx="11" ry="11" style="stroke:#000000;stroke-width:1.0;"/><ellipse cx="198.75" cy="412.1338" fill="#000000" rx="6" ry="6" style="stroke:#7F7F7F;stroke-width:1.0;"/><line style="stroke:#A80036;stroke-width:1.5;" x1="111.75" x2="100.5" y1="62" y2="62"/><line style="stroke:#A80036;stroke-width:1.5;" x1="100.5" x2="100.5" y1="62" y2="84"/><polygon fill="#A80036" points="96.5,74,100.5,84,104.5,74,100.5,78" style="stroke:#A80036;stroke-width:1.0;"/><line style="stroke:#A80036;stroke-width:1.5;" x1="285.75" x2="297" y1="62" y2="62"/><line style="stroke:#A80036;stroke-width:1.5;" x1="297" x2="297" y1="62" y2="84"/><polygon fill="#A80036" points="293,74,297,84,301,74,297,78" style="stroke:#A80036;stroke-width:1.0;"/><line style="stroke:#A80036;stroke-width:1.5;" x1="100.5" x2="100.5" y1="119.0938" y2="137.0938"/><line style="stroke:#A80036;stroke-width:1.5;" x1="100.5" x2="186.75" y1="137.0938" y2="137.0938"/><polygon fill="#A80036" points="176.75,133.0938,186.75,137.0938,176.75,141.0938,180.75,137.0938" style="stroke:#A80036;stroke-width:1.0;"/><line style="stroke:#A80036;stroke-width:1.5;" x1="297" x2="297" y1="119.0938" y2="137.0938"/><line style="stroke:#A80036;stroke-width:1.5;" x1="297" x2="210.75" y1="137.0938" y2="137.0938"/><polygon fill="#A80036" points="220.75,133.0938,210.75,137.0938,220.75,141.0938,216.75,137.0938" style="stroke:#A80036;stroke-width:1.0;"/><line style="stroke:#A80036;stroke-width:1.5;" x1="198.75" x2="198.75" y1="30" y2="50"/><polygon fill="#A80036" points="194.75,40,198.75,50,202.75,40,198.75,44" style="stroke:#A80036;stroke-width:1.0;"/><line style="stroke:#A80036;stroke-width:1.5;" x1="198.75" x2="198.75" y1="149.0938" y2="191.3467"/><polygon fill="#A80036" points="194.75,181.3467,198.75,191.3467,202.75,181.3467,198.75,185.3467" style="stroke:#A80036;stroke-width:1.0;"/><text fill="#000000" font-family="sans-serif" font-size="11" lengthAdjust="spacing" textLength="42" x="202.75" y="171.4297">resolves</text><line style="stroke:#A80036;stroke-width:1.5;" x1="198.75" x2="198.75" y1="226.4404" y2="268.6934"/><polygon fill="#A80036" points="194.75,258.6934,198.75,268.6934,202.75,258.6934,198.75,262.6934" style="stroke:#A80036;stroke-width:1.0;"/><text fill="#000000" font-family="sans-serif" font-size="11" lengthAdjust="spacing" textLength="42" x="202.75" y="248.7764">resolves</text><line style="stroke:#A80036;stroke-width:1.5;" x1="198.75" x2="198.75" y1="303.7871" y2="346.04"/><polygon fill="#A80036" points="194.75,336.04,198.75,346.04,202.75,336.04,198.75,340.04" style="stroke:#A80036;stroke-width:1.0;"/><text fill="#000000" font-family="sans-serif" font-size="11" lengthAdjust="spacing" textLength="39" x="202.75" y="326.123">used by</text><line style="stroke:#A80036;stroke-width:1.5;" x1="198.75" x2="198.75" y1="381.1338" y2="401.1338"/><polygon fill="#A80036" points="194.75,391.1338,198.75,401.1338,202.75,391.1338,198.75,395.1338" style="stroke:#A80036;stroke-width:1.0;"/><!--MD5=[23b38a7ea3cf49a875c936b4f7c99930]
@startuml
start
if (Is local application file present?) then (yes)
  :Local application file property;
else (no)
  :Gradle environment variable;
endif
-> resolves;
:Artifact specific resource values;
-> resolves;
:AndroidManifest.xml property;
-> used by;
:Application code;
stop
@enduml

PlantUML version 1.2021.01(Tue Feb 02 09:55:08 EET 2021)
(GPL source distribution)
Java Runtime: OpenJDK Runtime Environment
JVM: Dynamic Code Evolution 64-Bit Server VM
Default Encoding: Cp1252
Language: en
Country: US
--></g></svg>